<svg width="57.867561mm" height="85.158615mm" viewBox="0 0 57.867561 85.158615" xmlns="http://www.w3.org/2000/svg">
    <path d="m -1110.3124,-160.83953 52.5025,0.23937 -5.1553,44.3435 -21.3683,13.61083 -24.7502,-14.72795 z" fill="#00aad9" paint-order="markers stroke fill" transform="translate(-80.117705,-170.56673) translate(1193.799,356.34084)"/>
    <path d="m -1084.0289,-160.94537 c -1.5614,26.52556 2.3269,32.98599 0.2246,58.29954 l -25.2794,-14.72797 -1.2287,-43.46574 c 0,0 23.3428,0.0331 26.2835,-0.10583 z" fill="#016dba" paint-order="markers stroke fill" transform="translate(-80.117705,-170.56673) translate(1193.799,356.34084)"/>
    <path d="m 1732.0254,4023.6816 c -3.9307,-0.015 -7.5367,0.4654 -9.9004,1.5254 -18.7056,10.5859 -16.8736,25.5139 4.9531,40.67 6.3243,4.3915 19.5531,12.0553 -3.7734,13.3671 -9.5985,0.5398 -12.3479,8.0534 -5.8301,14.0254 l 1.6836,1.541 c 7.2215,6.6173 30.5195,1.6744 37.2051,-9.4277 5.7664,-9.5729 1.5462,-17.5629 -15.4824,-29.332 -7.2227,-4.9933 -13.0913,-10.8321 -13.0039,-12.9746 0.1285,-3.9651 2.629,-4.0264 17.2792,-0.4141 8.044,1.9829 11.2243,-5.2057 7.8829,-12.5508 -2.1321,-3.9563 -12.3662,-6.3948 -21.0137,-6.4297 z m -56.1328,1.17 c -4.599,0.034 -9.6327,1.0662 -15.1055,2.9824 -20.4801,7.171 -18.0647,25.3456 4.7969,36.1094 22.1178,10.4137 23.4967,15.5442 0.5879,14.8105 -13.9495,-0.4468 -18.2807,9.6692 -7.1485,13.4141 l 2.4942,0.8379 c 9.3411,3.1425 29.4769,2.2358 36.2578,-0.875 7.3527,-3.3736 8.9916,-13.8431 6.4238,-23.1114 -2.6785,-9.668 -23.3252,-17.0615 -30.8476,-18.9629 -4.5355,-1.1463 -13.2414,-7.9437 -2.9766,-10.7793 4.0441,-1.1172 9.9104,1.6697 14.6836,2.6504 8.5833,1.7638 12.77,-7.0176 6.4336,-11.9843 -4.4927,-3.5209 -9.6873,-5.1337 -15.5996,-5.0918 z m -65.7774,2.498 c -1.3379,0 -2.6562,0.124 -3.9257,0.3809 -10.5196,2.1285 -24.9032,17.1206 -27.6895,28.8613 -3.12,13.155 3.3466,27.8926 15.5352,35.4023 7.1191,4.3728 12.6346,5.6462 20.8203,4.7539 16.1091,-1.7566 26.4221,-6.4256 26.6035,-12.0468 0.2381,-7.3596 -3.8893,-8.5166 -18.8203,-5.2715 -19.7885,4.3007 -28.7452,-0.2944 -28.2852,-14.5039 0.4611,-14.1403 10.9622,-23.1271 25.0371,-21.4278 8.2738,0.9984 9.9797,0.2816 10.1192,-4.2675 0.2003,-6.0827 -10.0297,-11.8989 -19.3946,-11.8809 z m 108.1524,80.8848 c -20.7353,-0.048 -43.2497,0.3579 -63,1.3027 -28.8979,1.383 -60.1711,2.5247 -69.502,2.5625 -14.8841,0.043 -16.9181,0.7305 -16.6308,5.6172 0.1814,3.0635 1.8549,21.8805 3.7148,41.8164 1.8599,19.9351 4.3059,55.2208 5.4356,78.4102 1.1278,23.1896 2.9354,43.5795 4.0156,45.3125 2.6124,4.187 32.3185,24.0178 67.4961,45.0566 15.6786,9.3786 25.7879,14.4242 26.6758,15.168 7.8527,6.5797 15.8583,-4.0459 27.8632,-11.6192 12.0057,-7.5725 31.3383,-19.6625 42.9649,-26.8672 11.6254,-7.2054 21.8975,-14.9473 22.8144,-17.205 0.9222,-2.2572 4.7079,-37.7499 8.4141,-78.8711 3.7073,-41.1206 7.6322,-79.3459 8.7207,-84.9434 1.0904,-5.5999 0.5755,-11.0338 -1.1445,-12.082 -3.6601,-2.2332 -33.2794,-3.5783 -67.8379,-3.6582 z m 45.8242,17.4043 c 9.236,-0.1493 7.7116,0.4127 5.0527,15.1211 -1.4929,8.2586 -5.8675,39.1774 -8.9765,68.8593 -5.9736,57.0291 -8.4444,71.866 -11.9825,71.8887 -1.195,0.011 -16.5841,9.9307 -34.041,22.2676 l -21.8066,15.4101 c -11.1481,7.8587 -10.0468,8.1248 -21.6699,1.4981 -14.9772,-8.4696 -50.2575,-28.7417 -61.0137,-35.1484 -10.7807,-6.4213 -9.5128,-4.1299 -9.8945,-17.3633 -1.4722,-26.0328 -9.3388,-123.1567 -10.4942,-134.3965 -0.7245,-7.0467 7.9003,-5.4401 174.8262,-8.1367 z" transform="translate(-80.117705,-170.56673) translate(1193.799,356.34084) matrix(0.26458333,0,0,0.26458333,-1528.8417,-1250.3731)"/>
    <path d="m -1078.0731,-153.78 c -3.3036,-0.0167 -7.4098,0.13073 -12.2618,0.44546 -9.3704,0.60788 -12.2144,1.3485 -10.7327,2.79466 0.6108,0.59571 4.5124,0.91321 12.4453,1.01182 7.2436,0.0896 11.2689,0.39142 10.7879,0.80925 -0.4224,0.36658 -5.0951,2.61316 -10.3843,4.99195 -7.4644,3.35698 -9.687,4.68982 -9.923,5.95519 -0.447,2.38717 2.3596,3.11295 12.4313,3.44474 l 6.9169,0.22791 c 2.2153,0.0156 1.7229,-0.18338 1.5787,2.11511 -0.5025,8.62727 0.1691,8.5643 -5.3144,11.97602 -3.55,2.20871 -4.0183,2.45136 -5.18,1.45105 -1.7771,-1.53061 -7.5788,-4.37396 -9.0047,-4.41367 -2.1046,-0.0585 -2.3324,1.51106 -0.481,3.31401 0.9988,0.97258 3.7366,2.81292 6.0838,4.08916 v 0 c 2.3471,1.27622 4.5475,2.33995 4.8901,2.35075 1.2567,0.0616 6.6553,-2.71905 9.6971,-4.99401 1.7595,-1.31596 3.2493,-3.12214 3.4071,-4.12893 0.1535,-0.98436 0.7359,-3.72322 1.2934,-6.08645 0.5576,-2.36326 1.049,-5.37705 1.0919,-6.6978 0.094,-2.87239 -0.5225,-3.09335 -10.1141,-3.62301 l -6.6673,-0.36693 6.3898,-3.23286 c 3.5143,-1.77798 8.0232,-4.47908 10.0196,-6.00274 3.1759,-2.4239 3.501,-2.92243 2.5998,-3.98838 -0.7857,-0.92927 -4.0624,-1.41354 -9.5684,-1.44126 z" fill="#fff" transform="translate(-80.117705,-170.56673) translate(1193.799,356.34084)"/>
</svg>
