<svg width="57.86705mm" height="83.797531mm" viewBox="0 0 57.86705 83.797531" xmlns="http://www.w3.org/2000/svg">
    <path d="m -1467.2648,-130.13065 54.0549,-0.55256 -5.5613,44.05694 -21.6079,13.42112 -24.9611,-15.35512 z" fill="#d0b422" paint-order="markers stroke fill" transform="translate(-116.05539,-87.393305) translate(1585.8495,241.96161)"/>
    <path d="m -1440.0435,-130.53806 c -0.5505,4.24254 -0.028,19.89164 -1.3268,25.09954 -1.2985,5.20787 0.9912,32.233366 0.9912,32.233366 l 21.6079,-13.421122 5.5613,-44.056934 z" fill="#f7d724" paint-order="markers stroke fill" transform="translate(-116.05539,-87.393305) translate(1585.8495,241.96161)"/>
    <path d="m -1455.805,-124.39168 c -2.6714,-0.0204 -3.7871,0.151 -4.2783,0.64132 -0.8494,0.84797 -0.9436,1.36028 -0.1018,2.20142 1.2523,1.25124 3.8541,1.50384 11.4675,1.72754 2.5705,-0.0696 3.5509,-0.65445 3.2654,14.16656 0,4.26532 0.1162,6.932771 -0.4785,15.708603 -0.095,1.400413 0.352,0.428625 -3.6468,-1.476375 -4.3105,-2.317459 -4.5351,-2.585614 -4.4121,-5.262219 0.1737,-3.759619 -0.4389,-5.167469 -2.2779,-5.236369 -1.9285,-0.0723 -2.8352,2.525872 -2.4763,7.093109 0.3028,3.852889 1.3337,6.831198 8.5968,9.381331 l 0.9865,0.346737 c 2.3648,0.830289 4.2947,1.729026 5.2245,1.763739 1.7262,0.06466 2.5794,-1.100958 3.1099,-8.045 0.4292,-5.617422 0.458,-13.804746 0.6635,-20.608056 0.3545,-11.74175 -0.4613,-11.82528 -6.1474,-12.06746 -4.3985,-0.18735 -7.4172,-0.31908 -9.495,-0.33488 z m 27.5492,0.35968 c -2.1381,0 -4.3564,0.29905 -5.8379,1.31569 -3.1605,2.16876 -4.2052,8.25807 -4.146,11.79565 0.059,3.53761 2.1786,6.36466 6.2477,7.4135 4.0691,1.04886 4.8504,2.54804 4.6137,5.482876 -0.099,3.555365 -1.5525,5.322729 -4.0091,6.414585 -2.5876,1.150117 -5.5117,2.362756 -6.537,2.782279 -2.2519,0.921438 -2.4649,4.88225 0.064,4.935617 2.5284,0.05329 11.2323,-3.228208 13.099,-5.499418 2.0633,-2.510287 1.9657,-5.623083 2.42,-8.627374 0.4543,-3.004295 0.2393,-7.356445 -3.4742,-8.707495 -3.7135,-1.35104 -8.2896,-1.75058 -7.7629,-5.82236 0.3734,-2.88618 0.3629,-5.24682 3.2665,-6.2601 2.9037,-1.01327 6.6516,-0.65971 8.0145,-0.58859 1.363,0.0711 2.4609,-2.85925 -0.186,-4.10363 -2.1031,-0.24066 -4.0194,-0.52187 -5.7723,-0.53123 z" fill="#fff" transform="translate(-116.05539,-87.393305) translate(1585.8495,241.96161)"/>
    <path d="m -1445.1209,-154.56759 c -1.2418,0.0295 -1.4201,0.7838 -1.725,5.65028 -0.1972,3.13962 -0.6212,5.92561 -0.9415,6.19136 -0.3205,0.26048 -1.8047,0.3426 -3.298,0.17002 -4.163,-0.48088 -4.9728,2.29028 -1.201,4.11032 10.7618,3.96963 10.5409,-3.16113 9.9581,-12.01475 -0.2167,-3.29176 -1.2329,-4.05575 -2.5301,-4.10414 -0.093,-0.003 -0.1797,-0.005 -0.2625,-0.003 z m 11.9827,0.52244 c -1.8164,-0.0386 -4.1307,0.70038 -5.6658,2.51458 -1.6219,1.91664 -0.3014,5.94188 3.2329,7.14168 3.5035,1.18946 3.1437,2.68002 -0.6129,2.53937 -3.6338,-0.13616 -4.3028,1.87584 -1.1818,3.55483 1.9972,1.06289 3.0883,1.45516 6.2673,-0.10956 1.6074,-1.04481 2.2471,-2.11691 2.3301,-3.9026 0.1167,-2.53455 -2.4455,-5.11467 -5.1987,-5.70818 -0.6094,-0.13136 -1.7234,-1.08273 -0.4899,-2.11616 0.3773,-0.3161 1.4629,-0.6807 2.5937,-0.6382 2.2163,0.083 2.8656,-1.46773 0.7736,-2.76934 -0.5,-0.31105 -1.2229,-0.48888 -2.0485,-0.50642 z m 2.8081,20.48661 c -5.4861,-0.0127 -11.4427,0.0952 -16.6682,0.34518 -7.6459,0.36594 -15.9208,0.66799 -18.3896,0.67799 -3.9381,0.0114 -4.4757,0.19331 -4.3997,1.48622 0.048,0.81055 0.4908,5.78924 0.9829,11.06392 0.4921,5.27452 1.1387,14.60997 1.4376,20.745503 0.2985,6.135582 0.7772,11.530912 1.063,11.989462 0.6912,1.10781 8.5504,6.354206 17.8578,11.920722 4.1483,2.481421 6.8241,3.816906 7.059,4.013703 2.0776,1.740879 4.1954,-1.070478 7.3717,-3.07422 3.1765,-2.003558 8.2921,-5.202926 11.3683,-7.109143 3.0759,-1.906455 5.7932,-3.954833 6.0358,-4.552182 0.244,-0.597218 1.2456,-9.987439 2.2262,-20.867445 0.9809,-10.87983 2.0188,-20.99358 2.3068,-22.47461 0.2885,-1.48162 0.1524,-2.91934 -0.3028,-3.1967 -0.9684,-0.59084 -8.8052,-0.94723 -17.9488,-0.9684 z m 12.1249,4.60539 c 2.4438,-0.0284 2.0403,0.10917 1.3368,4.00079 -0.395,2.18506 -1.5524,10.36572 -2.375,18.21905 -1.5805,15.088924 -2.2348,19.014547 -3.1709,19.020527 -0.3162,0.0026 -4.3874,2.627497 -9.0062,5.891635 l -5.7696,4.077282 c -2.9496,2.079255 -2.6582,2.149687 -5.7335,0.396346 -3.9627,-2.240915 -13.2973,-7.605104 -16.1432,-9.30021 -2.8524,-1.698942 -2.517,-1.092147 -2.618,-4.59351 -0.3895,-6.887819 -2.8259,-33.12194 -3.068,-36.10168 -0.1495,-1.84058 3.1309,-1.10556 46.5476,-1.61023 z" transform="translate(-116.05539,-87.393305) translate(1585.8495,241.96161)"/>
</svg>
